<svg class="nc-icon glyph" xmlns="http://www.w3.org/2000/svg" xmlns:xlink="http://www.w3.org/1999/xlink" x="0px" y="0px" width="32px" height="32px" viewBox="0 0 32 32"><g>
<path fill="#444444" d="M31.43,27.298L29,20.819V4c0-1.105-0.895-2-2-2H5C3.895,2,3,2.895,3,4v16.819l-2.43,6.479
	c-0.23,0.614-0.145,1.303,0.229,1.842C1.173,29.678,1.787,30,2.443,30h27.114c0.656,0,1.27-0.322,1.644-0.86
	C31.574,28.601,31.66,27.912,31.43,27.298z M27,19H5V5c0-0.552,0.448-1,1-1h20c0.552,0,1,0.448,1,1V19z"></path>
</g></svg>